<svg width="980" height="551" xmlns="http://www.w3.org/2000/svg" xmlns:xlink="http://www.w3.org/1999/xlink">
<path fill="#ff595e" d="M 317.20 310.41 Q 317.20 310.41 308.17 315.52 299.14 320.63 286.93 324.32 274.72 328.01 256.05 331.91 237.37 335.81 221.49 337.48 205.60 339.15 193.46 339.40 181.33 339.65 174.78 338.11 168.22 336.57 164.78 331.62 161.34 326.68 164.14 318.08 166.93 309.48 176.44 300.32 185.96 291.16 201.81 283.77 217.67 276.38 242.50 270.50 267.33 264.61 300.74 260.98 334.14 257.34 361.69 255.80 389.23 254.27 409.74 256.62 430.25 258.97 442.68 262.79 455.11 266.62 461.46 276.49 467.81 286.36 468.25 297.52 468.68 308.67 462.49 318.08 456.31 327.50 445.07 335.68 433.83 343.86 417.75 349.91 401.66 355.96 383.58 358.54 365.49 361.11 351.41 362.17 337.33 363.24 329.06 363.20 320.79 363.16 316.43 360.98 312.07 358.79 310.01 354.31 307.96 349.84 314.35 339.92 320.74 330.01 332.54 322.69 344.34 315.36 373.29 311.77 402.23 308.17 434.57 309.73 466.91 311.29 489.92 317.32 512.93 323.36 526.65 332.72 540.38 342.07 546.77 355.65 553.15 369.22 549.63 383.10 546.11 396.97 533.96 408.70 521.82 420.44 500.65 428.90 479.47 437.37 453.79 442.06 428.12 446.75 400.36 448.73 372.60 450.71 343.61 449.01 314.62 447.31 292.12 441.68 269.62 436.05 255.58 426.59 241.55 417.12 236.98 405.10 232.40 393.07 239.49 381.42 246.58 369.76 270.50 360.32 294.42 350.88 330.96 347.02 367.50 343.16 414.05 342.47 460.60 341.79 507.24 347.04 553.88 352.29 591.28 360.53 628.68 368.77 650.74 376.71 672.81 384.65 683.07 392.89 693.34 401.13 693.91 411.11 694.48 421.09 684.55 427.67 674.63 434.24 643.42 437.61 612.22 440.98 586.53 442.31 560.84 443.64 546.45 443.97 532.07 444.31 525.71 442.22 519.34 440.14 519.34 440.14 519.34 440.13 519.34 440.13 519.34 440.12 525.61 438.22 531.89 436.31 546.15 435.98 560.42 435.65 585.92 434.33 611.41 433.02 641.10 430.16 670.80 427.29 679.70 422.46 688.59 417.63 688.00 411.59 687.40 405.56 678.69 398.84 669.98 392.12 648.46 384.35 626.95 376.58 589.96 368.41 552.98 360.24 506.84 355.01 460.71 349.79 414.51 350.45 368.32 351.11 332.76 354.74 297.20 358.37 274.87 366.55 252.54 374.72 246.05 383.96 239.55 393.19 243.06 402.18 246.58 411.17 259.15 419.77 271.72 428.36 293.42 433.84 315.11 439.32 343.58 441.03 372.04 442.73 399.37 440.80 426.70 438.88 451.63 434.40 476.57 429.92 496.55 422.20 516.53 414.49 527.62 404.39 538.72 394.30 542.25 382.78 545.78 371.27 540.62 359.74 535.46 348.20 523.10 339.62 510.74 331.03 488.61 325.15 466.48 319.27 434.82 317.70 403.16 316.12 375.68 319.21 348.20 322.30 337.64 328.55 327.08 334.80 321.73 343.53 316.39 352.26 318.82 353.77 321.26 355.28 328.99 355.27 336.73 355.26 350.55 354.22 364.38 353.19 381.65 350.82 398.91 348.46 414.07 342.89 429.23 337.32 439.54 330.06 449.85 322.81 455.41 315.38 460.96 307.95 460.89 298.96 460.81 289.97 456.22 281.67 451.63 273.36 440.47 270.14 429.31 266.91 409.48 264.58 389.66 262.25 362.33 263.77 335.00 265.29 302.08 268.85 269.15 272.40 245.07 278.03 220.98 283.66 206.15 290.37 191.32 297.08 182.76 304.86 174.20 312.64 171.25 319.00 168.31 325.37 169.77 327.49 171.24 329.62 176.23 330.64 181.22 331.65 193.00 331.43 204.77 331.20 220.26 329.59 235.74 327.98 254.08 324.16 272.41 320.35 284.51 316.70 296.62 313.05 306.91 311.72 317.20 310.39 317.20 310.40 Z"></path><path fill="#ff595e" d="M 542.80 209.59 Q 542.80 209.59 546.72 207.15 550.64 204.70 563.07 202.46 575.51 200.21 590.00 197.19 604.48 194.17 615.53 190.63 626.57 187.10 632.26 184.76 637.96 182.43 638.94 181.33 639.93 180.24 640.40 180.11 640.86 179.98 641.34 179.97 641.82 179.95 642.30 180.06 642.77 180.16 643.20 180.37 643.63 180.58 644.00 180.89 644.37 181.20 644.66 181.59 644.94 181.98 645.13 182.42 645.31 182.87 645.38 183.34 645.45 183.82 645.41 184.30 645.37 184.78 645.21 185.24 645.05 185.69 644.79 186.10 644.53 186.50 644.17 186.83 643.82 187.16 643.40 187.40 642.98 187.63 627.76 186.88 612.54 186.13 598.01 185.75 583.48 185.37 572.93 185.20 562.37 185.04 557.07 184.63 551.77 184.22 550.84 183.28 549.91 182.34 549.44 182.25 548.96 182.17 548.52 181.97 548.08 181.77 547.70 181.47 547.32 181.18 547.03 180.80 546.73 180.42 546.53 179.98 546.33 179.54 546.25 179.06 546.16 178.59 546.19 178.11 546.22 177.63 546.36 177.17 546.51 176.71 546.75 176.29 547.00 175.88 547.35 175.54 547.69 175.20 548.10 174.95 548.51 174.70 548.97 174.56 549.43 174.41 549.91 174.38 550.39 174.36 556.39 173.47 562.39 172.58 574.52 172.17 586.65 171.77 600.96 171.61 615.27 171.44 627.36 171.60 639.46 171.76 647.61 173.01 655.77 174.25 659.12 175.22 662.46 176.20 662.93 176.33 663.39 176.46 663.81 176.70 664.23 176.94 664.58 177.27 664.93 177.60 665.19 178.01 665.45 178.41 665.61 178.87 665.76 179.32 665.81 179.80 665.85 180.29 665.77 180.76 665.70 181.24 665.52 181.68 665.33 182.13 665.04 182.52 664.76 182.90 664.39 183.21 664.01 183.52 663.58 183.73 663.15 183.94 662.67 184.04 662.20 184.14 661.72 184.12 661.24 184.11 651.92 185.22 642.60 186.34 625.14 186.82 607.67 187.30 579.01 185.89 550.35 184.48 524.82 182.27 499.29 180.05 484.83 179.12 470.38 178.18 463.75 178.24 457.13 178.30 456.66 178.21 456.18 178.12 455.74 177.92 455.31 177.72 454.93 177.43 454.55 177.13 454.25 176.75 453.96 176.36 453.76 175.92 453.57 175.48 453.48 175.01 453.40 174.53 453.43 174.05 453.46 173.57 453.60 173.11 453.75 172.65 454.00 172.24 454.25 171.83 454.59 171.49 454.94 171.15 455.35 170.90 455.76 170.66 456.22 170.51 456.69 170.37 457.17 170.35 457.65 170.32 462.27 173.47 466.89 176.63 485.85 180.00 504.80 183.38 541.87 184.92 578.95 186.47 625.82 187.14 672.69 187.81 715.98 191.09 759.28 194.37 787.21 198.54 815.13 202.71 827.17 206.31 839.20 209.92 839.66 210.04 840.13 210.17 840.55 210.41 840.97 210.64 841.32 210.97 841.67 211.30 841.94 211.71 842.20 212.11 842.36 212.57 842.52 213.02 842.56 213.50 842.61 213.98 842.53 214.46 842.46 214.94 842.28 215.38 842.10 215.83 841.81 216.22 841.53 216.61 841.16 216.92 840.79 217.22 840.36 217.44 839.92 217.65 839.45 217.75 838.98 217.85 838.50 217.84 838.02 217.83 835.56 223.32 833.10 228.81 806.79 235.25 780.47 241.69 745.02 244.90 709.57 248.10 669.35 247.85 629.14 247.59 597.50 245.17 565.86 242.75 548.52 241.04 531.17 239.32 523.82 237.90 516.47 236.48 516.00 236.37 515.53 236.27 515.10 236.05 514.67 235.84 514.30 235.53 513.93 235.22 513.65 234.82 513.37 234.43 513.19 233.99 513.01 233.54 512.94 233.06 512.87 232.59 512.92 232.11 512.96 231.63 513.12 231.17 513.29 230.72 513.55 230.31 513.82 229.91 514.17 229.58 514.52 229.26 514.95 229.02 515.37 228.79 515.83 228.66 516.30 228.54 516.78 228.53 517.26 228.52 521.02 225.87 524.77 223.21 546.34 219.22 567.92 215.23 602.21 210.62 636.50 206.02 668.16 203.37 699.82 200.72 723.23 200.05 746.65 199.38 758.07 201.77 769.49 204.17 771.44 211.10 773.39 218.04 763.21 228.57 753.04 239.10 733.10 251.93 713.17 264.76 683.43 278.52 653.69 292.28 631.71 302.22 609.72 312.16 595.49 318.02 581.26 323.88 574.82 326.57 568.37 329.26 566.97 330.42 565.57 331.59 565.11 331.72 564.65 331.85 564.16 331.87 563.68 331.88 563.21 331.78 562.74 331.68 562.30 331.47 561.87 331.26 561.50 330.96 561.13 330.65 560.84 330.26 560.55 329.87 560.37 329.43 560.18 328.98 560.11 328.51 560.03 328.03 560.08 327.55 560.12 327.07 560.27 326.61 560.43 326.16 560.69 325.75 560.95 325.35 561.30 325.02 561.65 324.68 562.07 324.45 562.49 324.21 571.54 324.55 580.58 324.88 608.01 323.94 635.44 323.00 667.92 322.59 700.40 322.19 728.05 322.71 755.70 323.23 772.96 325.55 790.22 327.86 798.89 331.84 807.56 335.83 809.08 344.31 810.60 352.79 796.18 362.35 781.77 371.91 753.06 381.85 724.34 391.78 688.60 398.98 652.85 406.18 618.69 409.24 584.53 412.30 562.64 413.14 540.75 413.97 529.39 412.94 518.03 411.90 511.82 409.15 505.61 406.39 507.35 403.48 509.09 400.57 509.10 400.57 509.10 400.57 509.11 400.57 509.11 400.57 510.72 402.75 512.34 404.94 515.56 404.44 518.78 403.94 529.62 404.96 540.46 405.98 562.14 405.16 583.82 404.34 617.55 401.34 651.28 398.34 686.51 391.28 721.75 384.21 749.65 374.66 777.56 365.11 791.37 356.97 805.18 348.82 803.84 344.86 802.50 340.89 795.79 338.33 789.08 335.77 772.31 333.50 755.54 331.23 728.02 330.71 700.50 330.19 668.11 330.59 635.71 330.99 607.91 331.93 580.11 332.87 572.84 332.23 565.57 331.59 565.11 331.72 564.65 331.85 564.16 331.87 563.68 331.88 563.21 331.78 562.74 331.68 562.30 331.47 561.87 331.26 561.50 330.96 561.13 330.65 560.84 330.26 560.55 329.87 560.37 329.43 560.18 328.98 560.11 328.51 560.03 328.03 560.08 327.55 560.12 327.07 560.27 326.62 560.43 326.16 560.69 325.75 560.95 325.35 561.30 325.02 561.65 324.68 562.07 324.45 562.49 324.21 563.84 323.07 565.19 321.93 571.71 319.21 578.22 316.48 592.32 310.68 606.43 304.87 628.38 294.95 650.33 285.02 679.60 271.52 708.86 258.02 728.18 245.68 747.50 233.33 757.17 224.67 766.84 216.00 765.70 212.41 764.55 208.82 755.70 208.10 746.86 207.38 723.67 208.03 700.48 208.69 669.03 211.32 637.57 213.95 603.45 218.53 569.33 223.10 549.00 226.63 528.67 230.17 522.57 233.32 516.47 236.48 516.00 236.37 515.53 236.27 515.10 236.05 514.67 235.84 514.30 235.53 513.93 235.22 513.65 234.82 513.37 234.43 513.19 233.99 513.01 233.54 512.94 233.06 512.87 232.59 512.92 232.11 512.96 231.63 513.12 231.17 513.29 230.72 513.55 230.31 513.82 229.91 514.17 229.58 514.52 229.26 514.95 229.02 515.37 228.79 515.83 228.66 516.30 228.54 516.78 228.53 517.26 228.52 524.61 229.94 531.97 231.36 549.22 233.07 566.47 234.78 597.83 237.18 629.19 239.59 669.03 239.86 708.86 240.14 743.78 237.01 778.70 233.89 803.24 228.67 827.78 223.46 833.49 216.69 839.20 209.92 839.66 210.04 840.13 210.17 840.55 210.41 840.97 210.64 841.32 210.97 841.67 211.30 841.94 211.71 842.20 212.11 842.36 212.57 842.52 213.02 842.56 213.50 842.61 213.98 842.53 214.46 842.46 214.94 842.28 215.38 842.10 215.83 841.81 216.22 841.53 216.61 841.16 216.92 840.79 217.22 840.36 217.44 839.92 217.65 839.45 217.75 838.98 217.85 838.50 217.84 838.02 217.83 825.98 214.22 813.94 210.62 786.31 206.48 758.67 202.35 715.62 199.08 672.57 195.81 625.59 195.14 578.61 194.46 540.97 192.85 503.33 191.24 482.86 187.19 462.39 183.14 459.76 180.72 457.13 178.30 456.66 178.21 456.18 178.12 455.74 177.92 455.31 177.72 454.93 177.43 454.55 177.13 454.25 176.75 453.96 176.36 453.76 175.92 453.57 175.48 453.48 175.01 453.40 174.53 453.43 174.05 453.46 173.57 453.60 173.11 453.75 172.65 454.00 172.24 454.25 171.83 454.59 171.49 454.94 171.15 455.35 170.90 455.76 170.66 456.22 170.51 456.68 170.37 457.17 170.35 457.65 170.32 464.27 170.26 470.89 170.20 485.43 171.14 499.98 172.08 525.36 174.29 550.74 176.49 579.10 177.90 607.46 179.31 624.59 178.85 641.71 178.39 652.09 177.30 662.46 176.20 662.93 176.33 663.39 176.46 663.81 176.70 664.23 176.94 664.58 177.27 664.93 177.60 665.19 178.01 665.45 178.41 665.61 178.87 665.76 179.32 665.81 179.80 665.85 180.28 665.77 180.76 665.70 181.24 665.52 181.68 665.33 182.13 665.04 182.52 664.76 182.90 664.39 183.21 664.01 183.52 663.58 183.73 663.15 183.94 662.67 184.04 662.20 184.14 661.72 184.12 661.24 184.11 657.89 183.13 654.54 182.15 646.94 180.96 639.34 179.76 627.35 179.60 615.36 179.44 601.13 179.60 586.91 179.77 575.21 180.13 563.50 180.50 556.71 181.42 549.91 182.34 549.44 182.25 548.96 182.17 548.52 181.97 548.08 181.77 547.70 181.47 547.32 181.18 547.03 180.80 546.73 180.42 546.53 179.98 546.33 179.54 546.25 179.06 546.16 178.59 546.19 178.11 546.22 177.63 546.36 177.17 546.51 176.71 546.75 176.29 547.00 175.88 547.34 175.54 547.69 175.20 548.10 174.95 548.51 174.70 548.97 174.56 549.43 174.41 549.91 174.38 550.39 174.36 551.83 175.51 553.28 176.66 557.89 176.85 562.50 177.04 573.09 177.20 583.69 177.37 598.37 177.75 613.04 178.14 626.49 179.19 639.93 180.24 640.39 180.11 640.86 179.98 641.34 179.97 641.82 179.95 642.29 180.06 642.77 180.16 643.20 180.37 643.63 180.58 644.00 180.89 644.37 181.20 644.66 181.59 644.94 181.98 645.13 182.42 645.31 182.87 645.38 183.34 645.45 183.82 645.41 184.30 645.37 184.78 645.21 185.24 645.05 185.69 644.79 186.10 644.53 186.50 644.17 186.83 643.82 187.16 643.40 187.40 642.98 187.63 642.15 188.62 641.32 189.60 635.16 192.16 629.00 194.72 617.56 198.36 606.12 202.00 591.53 205.04 576.93 208.09 564.23 210.37 551.52 212.66 547.16 211.13 542.80 209.61 542.80 209.60 Z"></path>
</svg>